<svg width="38" height="38" viewBox="0 0 38 38" fill="none" xmlns="http://www.w3.org/2000/svg">
<g id="tabler-icon-adjustments">
<path id="Vector" d="M9.49998 19.0007C8.66013 19.0007 7.85467 18.667 7.26081 18.0732C6.66694 17.4793 6.33331 16.6738 6.33331 15.834C6.33331 14.9941 6.66694 14.1887 7.26081 13.5948C7.85467 13.0009 8.66013 12.6673 9.49998 12.6673M9.49998 19.0007C10.3398 19.0007 11.1453 18.667 11.7392 18.0732C12.333 17.4793 12.6666 16.6738 12.6666 15.834C12.6666 14.9941 12.333 14.1887 11.7392 13.5948C11.1453 13.0009 10.3398 12.6673 9.49998 12.6673M9.49998 19.0007V31.6673M9.49998 12.6673V6.33398M19 28.5007C18.1601 28.5007 17.3547 28.167 16.7608 27.5732C16.1669 26.9793 15.8333 26.1738 15.8333 25.334C15.8333 24.4941 16.1669 23.6887 16.7608 23.0948C17.3547 22.5009 18.1601 22.1673 19 22.1673M19 28.5007C19.8398 28.5007 20.6453 28.167 21.2392 27.5732C21.833 26.9793 22.1666 26.1738 22.1666 25.334C22.1666 24.4941 21.833 23.6887 21.2392 23.0948C20.6453 22.5009 19.8398 22.1673 19 22.1673M19 28.5007V31.6673M19 22.1673V6.33398M28.5 14.2507C27.6601 14.2507 26.8547 13.917 26.2608 13.3232C25.6669 12.7293 25.3333 11.9238 25.3333 11.084C25.3333 10.2441 25.6669 9.43868 26.2608 8.84481C26.8547 8.25095 27.6601 7.91732 28.5 7.91732M28.5 14.2507C29.3398 14.2507 30.1453 13.917 30.7392 13.3232C31.333 12.7293 31.6666 11.9238 31.6666 11.084C31.6666 10.2441 31.333 9.43868 30.7392 8.84481C30.1453 8.25095 29.3398 7.91732 28.5 7.91732M28.5 14.2507V31.6673M28.5 7.91732V6.33398" stroke="#3A3A3A" stroke-width="4" stroke-linecap="round" stroke-linejoin="round"/>
</g>
</svg>
