<svg width="24" height="25" viewBox="0 0 24 25" fill="none" xmlns="http://www.w3.org/2000/svg">
<path d="M8.5 12.5L10.8333 14.8333L15.5 10.1667M1.5 12.5C1.5 13.8789 1.77159 15.2443 2.29926 16.5182C2.82694 17.7921 3.60036 18.9496 4.57538 19.9246C5.55039 20.8996 6.70791 21.6731 7.98182 22.2007C9.25574 22.7284 10.6211 23 12 23C13.3789 23 14.7443 22.7284 16.0182 22.2007C17.2921 21.6731 18.4496 20.8996 19.4246 19.9246C20.3996 18.9496 21.1731 17.7921 21.7007 16.5182C22.2284 15.2443 22.5 13.8789 22.5 12.5C22.5 11.1211 22.2284 9.75574 21.7007 8.48182C21.1731 7.20791 20.3996 6.05039 19.4246 5.07538C18.4496 4.10036 17.2921 3.32694 16.0182 2.79927C14.7443 2.27159 13.3789 2 12 2C10.6211 2 9.25574 2.27159 7.98182 2.79927C6.70791 3.32694 5.55039 4.10036 4.57538 5.07538C3.60036 6.05039 2.82694 7.20791 2.29926 8.48182C1.77159 9.75574 1.5 11.1211 1.5 12.5Z" stroke="#3A3A3A" stroke-width="3" stroke-linecap="round" stroke-linejoin="round"/>
</svg>
