<svg width="28" height="29" viewBox="0 0 28 29" fill="none" xmlns="http://www.w3.org/2000/svg">
<g id="tabler-icon-cloud-off">
<path id="Vector" d="M11.1768 6.97253C11.4568 6.8442 11.7508 6.73103 12.0542 6.63887C14.2475 5.97153 16.6695 6.4137 18.4055 7.80553C20.1415 9.19387 20.9278 11.3137 20.4705 13.3694H21.6255C23.8573 13.3694 25.6668 15.1894 25.6668 17.4364C25.6668 18.5529 25.22 19.5644 24.4967 20.2994M21.0002 21.5045H7.76666C4.766 21.4999 2.3335 19.1584 2.3335 16.2697C2.3335 13.3822 4.766 11.0407 7.76666 11.0407C7.91833 10.3617 8.19833 9.7247 8.58333 9.1507M3.50016 4L24.5002 25" stroke="#B0B0B0" stroke-width="3" stroke-linecap="round" stroke-linejoin="round"/>
</g>
</svg>
