<svg width="30" height="33" viewBox="0 0 30 33" fill="none" xmlns="http://www.w3.org/2000/svg">
<path d="M2.33398 8.58333H27.6673M11.834 14.9167V24.4167M18.1673 14.9167V24.4167M3.91732 8.58333L5.50065 27.5833C5.50065 28.4232 5.83428 29.2286 6.42814 29.8225C7.02201 30.4164 7.82746 30.75 8.66732 30.75H21.334C22.1738 30.75 22.9793 30.4164 23.5731 29.8225C24.167 29.2286 24.5006 28.4232 24.5006 27.5833L26.084 8.58333M10.2506 8.58333V3.83333C10.2506 3.41341 10.4175 3.01068 10.7144 2.71375C11.0113 2.41681 11.4141 2.25 11.834 2.25H18.1673C18.5872 2.25 18.99 2.41681 19.2869 2.71375C19.5838 3.01068 19.7506 3.41341 19.7506 3.83333V8.58333" stroke="#EA5858" stroke-width="3" stroke-linecap="round" stroke-linejoin="round"/>
</svg>
