<svg width="18" height="21" viewBox="0 0 18 21" fill="none" xmlns="http://www.w3.org/2000/svg">
<path d="M15.3641 3.13606C17.0164 4.78819 17.9614 7.01817 17.9993 9.35447C18.0372 11.6908 17.1649 13.9502 15.5671 15.6551L15.3641 15.8651L11.1211 20.1071C10.5827 20.6451 9.85993 20.9584 9.09921 20.9834C8.33849 21.0085 7.59668 20.7435 7.02406 20.2421L6.88006 20.1071L2.63606 15.8641C0.948218 14.1762 0 11.887 0 9.50006C0 7.11309 0.948218 4.82389 2.63606 3.13606C4.32389 1.44822 6.61309 0.5 9.00006 0.5C11.387 0.5 13.6762 1.44822 15.3641 3.13606ZM9.00006 6.50006C8.60609 6.50006 8.21598 6.57765 7.85201 6.72842C7.48803 6.87918 7.15731 7.10016 6.87873 7.37873C6.60016 7.65731 6.37918 7.98803 6.22842 8.35201C6.07765 8.71598 6.00006 9.10609 6.00006 9.50006C6.00006 9.89402 6.07765 10.2841 6.22842 10.6481C6.37918 11.0121 6.60016 11.3428 6.87873 11.6214C7.15731 11.9 7.48803 12.1209 7.85201 12.2717C8.21598 12.4225 8.60609 12.5001 9.00006 12.5001C9.7957 12.5001 10.5588 12.184 11.1214 11.6214C11.684 11.0588 12.0001 10.2957 12.0001 9.50006C12.0001 8.70441 11.684 7.94134 11.1214 7.37873C10.5588 6.81613 9.7957 6.50006 9.00006 6.50006Z" fill="#3A3A3A"/>
</svg>
