<svg width="24" height="30" viewBox="0 0 24 30" fill="none" xmlns="http://www.w3.org/2000/svg">
<path d="M7.5 4.5H4.5C3.70435 4.5 2.94129 4.81607 2.37868 5.37868C1.81607 5.94129 1.5 6.70435 1.5 7.5V25.5C1.5 26.2956 1.81607 27.0587 2.37868 27.6213C2.94129 28.1839 3.70435 28.5 4.5 28.5H19.5C20.2957 28.5 21.0587 28.1839 21.6213 27.6213C22.1839 27.0587 22.5 26.2956 22.5 25.5V7.5C22.5 6.70435 22.1839 5.94129 21.6213 5.37868C21.0587 4.81607 20.2957 4.5 19.5 4.5H16.5M7.5 4.5C7.5 3.70435 7.81607 2.94129 8.37868 2.37868C8.94129 1.81607 9.70435 1.5 10.5 1.5H13.5C14.2957 1.5 15.0587 1.81607 15.6213 2.37868C16.1839 2.94129 16.5 3.70435 16.5 4.5M7.5 4.5C7.5 5.29565 7.81607 6.05871 8.37868 6.62132C8.94129 7.18393 9.70435 7.5 10.5 7.5H13.5C14.2957 7.5 15.0587 7.18393 15.6213 6.62132C16.1839 6.05871 16.5 5.29565 16.5 4.5M7.5 18H7.515M7.5 22.5H7.515M12 21L13.5 22.5L18 18" stroke="#3A3A3A" stroke-width="3" stroke-linecap="round" stroke-linejoin="round"/>
</svg>
